<svg width="1192" height="738" viewBox="0 0 1192 738" fill="none" xmlns="http://www.w3.org/2000/svg">
<g filter="url(#filter0_d_5_33)">
<path d="M1010.48 681.958L659.798 104.87L596 -8.61883e-05C586.301 -8.61883e-05 579.626 0.0894524 579.626 0.0894524L520.631 104.87L184.471 682.842C185.194 683.243 275.905 723 275.905 723L590.215 135.949L917.228 723C952.18 712.208 1010.48 681.958 1010.48 681.958Z" fill="white"/>
<path d="M71.384 590.983C100.426 626.232 137.401 656.45 182.308 681.637L184.471 682.842L233.587 593.87C145.206 543.686 93.4791 472.262 93.4791 384.251C93.4791 325.453 113.308 275.081 152.966 233.135C192.624 190.815 250.033 158.42 325.194 135.949C377.163 120.073 453.705 109.713 520.631 104.87L579.626 0.0894524C575.757 0.180456 554.003 0.595312 550.171 0.717565L550.101 0.719763C444.967 4.07877 353.568 19.1941 275.905 46.0655C186.769 76.4012 118.596 120.407 71.384 178.082C23.7947 235.383 0 304.105 0 384.251C0 464.397 23.7947 533.308 71.384 590.983Z" fill="#FF6464"/>
<path d="M1121.75 591.545C1168.58 534.245 1192 465.146 1192 384.251C1192 303.356 1168.58 234.446 1121.75 177.52C1074.54 120.219 1006.36 76.4012 917.228 46.0655C840.192 19.5241 699.837 3.60282 596 -8.61883e-05L659.798 104.87C773.167 113.192 896.905 137.147 965.951 176.396C1053.2 226.206 1096.82 295.491 1096.82 384.251C1096.82 443.05 1077.18 493.61 1037.9 535.93C1028.47 546.001 960.308 601.215 960.308 590.983L1010.48 681.958C1055.37 656.835 1092.75 626.512 1121.75 591.545Z" fill="#5183C5"/>
</g>
<defs>
<filter id="filter0_d_5_33" x="0" y="-6.10352e-05" width="1192" height="738" filterUnits="userSpaceOnUse" color-interpolation-filters="sRGB">
<feFlood flood-opacity="0" result="BackgroundImageFix"/>
<feColorMatrix in="SourceAlpha" type="matrix" values="0 0 0 0 0 0 0 0 0 0 0 0 0 0 0 0 0 0 127 0" result="hardAlpha"/>
<feOffset dy="15"/>
<feComposite in2="hardAlpha" operator="out"/>
<feColorMatrix type="matrix" values="0 0 0 0 0 0 0 0 0 0 0 0 0 0 0 0 0 0 0.25 0"/>
<feBlend mode="normal" in2="BackgroundImageFix" result="effect1_dropShadow_5_33"/>
<feBlend mode="normal" in="SourceGraphic" in2="effect1_dropShadow_5_33" result="shape"/>
</filter>
</defs>
</svg>
